PathFileType	4	(X/Y/Z)	/Users/niels/Desktop/University/Third Semester/Perception and Action/Exam/Gymnastics Motion Tracking/Code for Gym Tracking/Analyzed Data/Webcam_Backflip/id7_2_trajectory_Sports2D/id7_2_trajectory_Sports2D_px_person00.trc
DataRate	CameraRate	NumFrames	NumMarkers	Units	OrigDataRate	OrigDataStartFrame	OrigNumFrames
29.810126582278482	29.810126582278482	7	22	m	29.810126582278482	98	158
Frame#	Time	Hip			RHip			RKnee			RAnkle			RBigToe			RSmallToe			RHeel			LHip			LKnee			LAnkle			LBigToe			LSmallToe			LHeel			Neck			Head			Nose			RShoulder			RElbow			RWrist			LShoulder			LElbow			LWrist		
		X1	Y1	Z1	X2	Y2	Z2	X3	Y3	Z3	X4	Y4	Z4	X5	Y5	Z5	X6	Y6	Z6	X7	Y7	Z7	X8	Y8	Z8	X9	Y9	Z9	X10	Y10	Z10	X11	Y11	Z11	X12	Y12	Z12	X13	Y13	Z13	X14	Y14	Z14	X15	Y15	Z15	X16	Y16	Z16	X17	Y17	Z17	X18	Y18	Z18	X19	Y19	Z19	X20	Y20	Z20	X21	Y21	Z21	X22	Y22	Z22
98	3.2874734607218685	0.9942453202164073	-0.5353742920228317	0.0	0.9569153863350183	-0.5363583683582931	0.0	0.9691955141745474	-0.6953353895018823	0.0	0.9887668393923669	-0.8282394337354984	0.0	0.9825001439991324	-0.8651747512636441	0.0	0.9673656108995241	-0.8590992886664802	0.0	0.9962971447358923	-0.8456502074960632	0.0	1.0300937620750876	-0.5348991917784031	0.0	1.0319238357558465	-0.6808768855485542	0.0	1.0426597288984238	-0.8145147324503156	0.0	1.0495042196471531	-0.8634718505464339	0.0	1.0693464904432608	-0.8551913703606576	0.0	1.0389836658756413	-0.8317771066635028	0.0	1.0031249090419632	-0.32465319663266246	0.0	1.0084618758328174	-0.22953914993940286	0.0	1.0047697433965193	-0.2821465236939667	0.0	0.9400777989260511	-0.35757542761822003	0.0	0.9313929514978891	-0.4543959034214264	0.0	0.9167597491499329	-0.5376806752701524	0.0	1.0607505252610059	-0.3592519680589549	0.0	1.0635600490052328	-0.4635247095337871	0.0	1.0767555367192558	-0.5585187114700962	0.0
99	3.3210191082802547	0.9942994631573898	-0.531863167351946	0.0	0.9563247307666386	-0.5332394763910883	0.0	0.9715897420159534	-0.6947119843767549	0.0	0.9888169385057459	-0.8266790647844439	0.0	0.9829321646681073	-0.8643993630135168	0.0	0.9682577442794438	-0.8580449054171776	0.0	0.995256322989218	-0.8440924374592678	0.0	1.0303126232178046	-0.5308693340666197	0.0	1.0288315209208936	-0.6800731952953829	0.0	1.0398737052433733	-0.8209082911838486	0.0	1.044659484073419	-0.870963018768652	0.0	1.0651453566221016	-0.8631853053989833	0.0	1.0360801854924913	-0.8385802379015259	0.0	1.0017725708306815	-0.3183036783190711	0.0	1.0064049133173723	-0.22184844546778457	0.0	1.0037435485488808	-0.275156544315056	0.0	0.9382040314370289	-0.3519664515680494	0.0	0.930190927956972	-0.44915787419539466	0.0	0.919372799688605	-0.5305494463041184	0.0	1.0600380152964006	-0.3534601354370028	0.0	1.0628452803261972	-0.45770511556421173	0.0	1.0769825586871757	-0.5525775679237223	0.0
100	3.3545647558386413	0.9943570112298086	-0.5290028355204339	0.0	0.9559239172648437	-0.5305998976723407	0.0	0.9737325476648127	-0.6943810259113764	0.0	0.9888922315426093	-0.8250604272560067	0.0	0.9838830121179942	-0.8641518663377802	0.0	0.969345270596759	-0.8575858144648588	0.0	0.994014227833598	-0.8422566099220701	0.0	1.0307336160129128	-0.5275535268688953	0.0	1.025732012166334	-0.6811739491013483	0.0	1.0370207975256736	-0.8300476128044946	0.0	1.0382070398188008	-0.8808748559079314	0.0	1.0595806249657378	-0.8739742243567239	0.0	1.0333788320323727	-0.8481078342800947	0.0	1.000418153927237	-0.31256934547222776	0.0	1.0043189511009591	-0.21475918629829335	0.0	1.0024360882913879	-0.26888054274425016	0.0	0.9365504498625287	-0.34675156880261687	0.0	0.9269616818676626	-0.4434019922463247	0.0	0.9188598028499243	-0.5220874873478972	0.0	1.0596603029536422	-0.34808941988422315	0.0	1.063608839284521	-0.4520215684170036	0.0	1.080112722740575	-0.546227815887405	0.0
101	3.3881104033970275	0.9942714517551976	-0.5271540997686978	0.0	0.9555970997630607	-0.528818556773318	0.0	0.975264738254674	-0.6946442983301124	0.0	0.9890422368405094	-0.8234241025766625	0.0	0.9848570544193691	-0.8644791425268956	0.0	0.9703577553577972	-0.8577688000601097	0.0	0.9929159106423849	-0.8401729746870945	0.0	1.0311193904961309	-0.5254035746566906	0.0	1.0231485139690777	-0.684017517075843	0.0	1.034277193200914	-0.8402688284499928	0.0	1.0311121973217203	-0.8917034211198124	0.0	1.0533786031973338	-0.885855466675403	0.0	1.0311434016876886	-0.8585856151100015	0.0	0.999094168354375	-0.3079356200663622	0.0	1.002373753177555	-0.20897330493996225	0.0	1.0009921197857998	-0.2639425258942436	0.0	0.935139294432285	-0.34251455265618674	0.0	0.9225912529923934	-0.43834949196269335	0.0	0.9162314900037659	-0.514128374153762	0.0	1.0596107367032885	-0.3436271864849577	0.0	1.0654372276510256	-0.44715364031351884	0.0	1.085020797631682	-0.5404167616825138	0.0
102	3.421656050955414	0.9940035038357226	-0.5264937797897827	0.0	0.9553121900043622	-0.5280940214605048	0.0	0.9760479418645508	-0.6957085261785678	0.0	0.9892939321625492	-0.8218656040988028	0.0	0.9854546415554255	-0.865207064950485	0.0	0.9711193720085426	-0.8583955393412636	0.0	0.9922664753620944	-0.8379235421858764	0.0	1.0313581953084285	-0.5245603108985049	0.0	1.0213910394293002	-0.6879961408769815	0.0	1.0318298827848447	-0.8500728419141441	0.0	1.0244414849475123	-0.9018545384104018	0.0	1.0474712946190212	-0.8970480538866896	0.0	1.0295010727005283	-0.8683969239369829	0.0	0.997902345227513	-0.30471602622185034	0.0	1.0006691058356005	-0.2048647646895035	0.0	0.9996696489062151	-0.2606634410914722	0.0	0.9339730241404314	-0.3396480124109615	0.0	0.9181226249262784	-0.43486861325202486	0.0	0.9125200127275648	-0.5081079175832275	0.0	1.0598143666620825	-0.34048296184625804	0.0	1.0679299580891768	-0.4436093490516056	0.0	1.0907698621781505	-0.5358920042750915	0.0
103	3.4552016985138003	0.9935959831246004	-0.526941433552097	0.0	0.9550678435431548	-0.5283619215599039	0.0	0.9760566970115649	-0.6976709775323862	0.0	0.9896479353356216	-0.8203749103094802	0.0	0.985635985392451	-0.8659801468497828	0.0	0.9716619761644311	-0.8590563474334069	0.0	0.992203189626695	-0.8354707511078826	0.0	1.0314683927013588	-0.5248284226114616	0.0	1.0205482740631642	-0.6922646946463659	0.0	1.0298404794326093	-0.8584626872564537	0.0	1.0190038981568488	-0.9101108380514183	0.0	1.0426498008932068	-0.9062282476058138	0.0	1.0284291295712804	-0.8765468922110659	0.0	0.9969471548930855	-0.30298858668531653	0.0	0.9992497497713414	-0.20244600153969486	0.0	0.9986704864380371	-0.2589569336558455	0.0	0.933019936577522	-0.3382863580795635	0.0	0.9144980840097071	-0.4333434793042684	0.0	0.9086159307018834	-0.5049168668084647	0.0	1.060152103526947	-0.33889031794899366	0.0	1.0707721222242084	-0.44156783823547535	0.0	1.096704117238813	-0.5329413506258786	0.0
104	3.488747346072187	0.9931358269871087	-0.5281473849932792	0.0	0.9548556898316499	-0.5292727417723584	0.0	0.9752187364017431	-0.700492278418753	0.0	0.9900607662423672	-0.818766217973789	0.0	0.9856797686334801	-0.8664181002657511	0.0	0.9721496991137544	-0.8592856252257708	0.0	0.9926880032316727	-0.8325653791333194	0.0	1.0315261673895963	-0.5257770698012917	0.0	1.0205288864159996	-0.696007529497738	0.0	1.0284137133634614	-0.8649725005659326	0.0	1.0151821111484138	-0.9159231295513044	0.0	1.0393415929595182	-0.9127778156309343	0.0	1.027842000131487	-0.8826480793325606	0.0	0.9962440753594317	-0.30250896920080794	0.0	0.9981453260447796	-0.2013761395584888	0.0	0.9980718348712639	-0.25836932532950946	0.0	0.9321851995789195	-0.33824677166633493	0.0	0.912347088121268	-0.4336541660553002	0.0	0.9052037799906735	-0.5048377802424316	0.0	1.0604805620375737	-0.3387401090518527	0.0	1.0736944125034402	-0.44089928201261797	0.0	1.1024210799667913	-0.5314712052471282	0.0
